<?xml version="1.0" ?>
<svg xmlns="http://www.w3.org/2000/svg" version="1.1" viewBox="0 0 512 512" xml:space="preserve">
<path fill="#1e40af" d="M421.038,44.765c-19.928-14.549-47.523-12.345-64.959,5.092   c-0.201,0.201-237.603,237.603-266.789,266.79c-1.099,1.098-1.926,2.436-2.417,3.909l-13.454,40.36l-12.541,12.541   c-9.291,9.317-11.216,23.095-5.858,34.258L2.929,459.808c-3.905,3.905-3.905,10.237,0,14.143c3.906,3.904,10.235,3.905,14.143,0   l52.092-52.092c11.187,5.368,24.988,3.411,34.268-5.868l12.53-12.531l40.361-13.454c1.473-0.491,2.812-1.318,3.909-2.416   l266.786-266.786c16.754-16.735,18.972-41.924,7.73-60.968C459.478,46.228,492,63.69,492,94.039v76.64   c0,34.441-35.89,35.136-35.99,35.18c-29.985,0-54.38,24.395-54.38,54.38v64.767c-22.874,4.584-40.16,24.82-40.16,49.023v40.33   c0,5.522,4.478,10,10,10h10.08v30.16c0,5.522,4.478,10,10,10s10-4.478,10-10v-30.16h20.16v30.16c0,5.522,4.478,10,10,10   s10-4.478,10-10v-30.16h10.09c5.522,0,10-4.478,10-10v-40.33c0-24.206-17.292-44.444-40.17-49.024v-64.765   c0-33.664,35.09-34.337,35.19-34.38c30.426,0,55.18-24.754,55.18-55.18v-76.64C512,46.308,458.923,19.619,421.038,44.765z    M89.29,401.848c-3.941,3.941-10.309,3.956-14.259,0c-3.927-3.927-3.971-10.276,0-14.258l7.129-7.129l14.258,14.258L89.29,401.848z    M147.759,371.778l-34.498,11.499l-19.659-19.66l11.499-34.496l48.056-48.056l42.661,42.654L147.759,371.778z M209.959,309.578   l-42.661-42.654L273.85,160.372l42.658,42.657L209.959,309.578z M412.879,106.658l-82.229,82.229l-42.658-42.657L370.222,64   c11.794-11.794,30.872-11.794,42.657,0C424.695,75.816,424.654,94.897,412.879,106.658z M441.8,374.028v30.33h-60.33v-30.33   c0-16.542,13.458-30,30-30h0.33C428.342,344.028,441.8,357.486,441.8,374.028z M266.722,210.158c3.905,3.905,3.905,10.237,0,14.142   l-35.5,35.499c-3.907,3.905-10.236,3.904-14.143,0c-3.905-3.905-3.905-10.237,0-14.143l35.5-35.5   C256.487,206.253,262.818,206.254,266.722,210.158z"/>
</svg>