<?xml version="1.0" encoding="iso-8859-1"?>
<svg fill="#1e40af" height="800px" width="800px" version="1.1" id="Capa_1" xmlns="http://www.w3.org/2000/svg" xmlns:xlink="http://www.w3.org/1999/xlink" 
	 viewBox="0 0 394.995 394.995" xml:space="preserve">
<path d="M155.058,216.542c0-19.393-15.776-35.17-35.169-35.17s-35.17,15.777-35.17,35.17s15.777,35.17,35.17,35.17
	S155.058,235.935,155.058,216.542z M104.719,216.542c0-8.365,6.806-15.17,15.17-15.17s15.169,6.805,15.169,15.17
	s-6.805,15.17-15.169,15.17S104.719,224.907,104.719,216.542z M149.864,267.94c-19.393,0-35.169,15.777-35.169,35.17
	s15.776,35.17,35.169,35.17c19.394,0,35.172-15.777,35.172-35.17S169.257,267.94,149.864,267.94z M149.864,318.28
	c-8.364,0-15.169-6.805-15.169-15.17s6.805-15.17,15.169-15.17c8.366,0,15.172,6.805,15.172,15.17S158.23,318.28,149.864,318.28z
	 M275.104,181.373c-19.393,0-35.169,15.777-35.169,35.17s15.776,35.17,35.169,35.17c19.394,0,35.172-15.777,35.172-35.17
	S294.498,181.373,275.104,181.373z M275.104,231.712c-8.364,0-15.169-6.805-15.169-15.17s6.805-15.17,15.169-15.17
	c8.366,0,15.172,6.805,15.172,15.17S283.47,231.712,275.104,231.712z M207.498,80.837V33.939l125.064,25.332v32.915
	c0,5.523,4.478,10,10,10s10-4.477,10-10V51.361c0.005-0.186,0.005-0.371,0-0.555V10c0-5.523-4.478-10-10-10s-10,4.477-10,10v28.865
	L199.483,11.91c-2.939-0.598-5.993,0.161-8.315,2.06c-2.323,1.899-3.67,4.741-3.67,7.741v59.126
	c-82.057,5.177-147.235,73.582-147.235,156.922c0,86.7,70.535,157.236,157.235,157.236s157.235-70.536,157.235-157.236
	C354.733,154.419,289.554,86.015,207.498,80.837z M197.498,374.995c-75.672,0-137.235-61.564-137.235-137.236
	c0-75.672,61.563-137.236,137.235-137.236s137.235,61.564,137.235,137.236C334.733,313.431,273.169,374.995,197.498,374.995z
	 M232.667,159.849c0-19.393-15.777-35.17-35.17-35.17s-35.17,15.777-35.17,35.17s15.777,35.17,35.17,35.17
	S232.667,179.241,232.667,159.849z M197.498,175.019c-8.365,0-15.17-6.805-15.17-15.17s6.805-15.17,15.17-15.17
	s15.17,6.805,15.17,15.17S205.863,175.019,197.498,175.019z M245.129,267.94c-19.393,0-35.17,15.777-35.17,35.17
	s15.777,35.17,35.17,35.17s35.17-15.777,35.17-35.17S264.522,267.94,245.129,267.94z M245.129,318.28
	c-8.364,0-15.17-6.805-15.17-15.17s6.806-15.17,15.17-15.17s15.17,6.805,15.17,15.17S253.494,318.28,245.129,318.28z"/>
</svg>
