<svg xmlns="http://www.w3.org/2000/svg" width="100%" viewBox="0 0 680 430" role="img" data-pathway="hpg_axis">
<title>Гипоталамо-гипофизарно-гонадная ось (мужская)</title><desc>Гипоталамус — гипофиз (ЛГ, ФСГ) — Лейдиг и Сертоли — тестостерон, ингибин B, сперматогенез; ГСПГ, эстрадиол, АМГ, пролактин.</desc>
<style>
.node-shape{fill:#EEF0F2;stroke:#8A8F98;stroke-width:1;}
.lbl{font-family:Arial,Helvetica,sans-serif;fill:#22303C;}
.lbl-t{font-weight:600;font-size:14px;}
.lbl-s{font-size:12px;fill:#5A6672;}
.edge{stroke:#9AA3AD;stroke-width:1.2;fill:none;}
[data-sev="norm"] .node-shape{fill:#E6F4EA;stroke:#3B8E5A;}
[data-sev="mild"] .node-shape{fill:#FBF3D6;stroke:#C9A227;}
[data-sev="moderate"] .node-shape{fill:#FBE7D2;stroke:#D97B29;}
[data-sev="severe"] .node-shape{fill:#F7D9D9;stroke:#C0392B;}
[data-sev="nodata"] .node-shape{fill:#F1EFE8;stroke:#B4B2A9;}
</style>
<defs><marker id="arrow" viewBox="0 0 10 10" refX="8" refY="5" markerWidth="6" markerHeight="6" orient="auto-start-reverse"><path d="M2 1L8 5L2 9" fill="none" stroke="context-stroke" stroke-width="1.5" stroke-linecap="round" stroke-linejoin="round"/></marker></defs>
<line x1="340" y1="82" x2="340" y2="98" class="edge" marker-end="url(#arrow)"/>
<line x1="278" y1="148" x2="240" y2="163" class="edge" marker-end="url(#arrow)"/>
<line x1="402" y1="148" x2="440" y2="163" class="edge" marker-end="url(#arrow)"/>
<line x1="176" y1="211" x2="174" y2="228" class="edge" marker-end="url(#arrow)"/>
<line x1="502" y1="211" x2="503" y2="228" class="edge" marker-end="url(#arrow)"/>
<line x1="148" y1="282" x2="130" y2="303" class="edge" marker-end="url(#arrow)"/>
<line x1="490" y1="282" x2="478" y2="303" class="edge" marker-end="url(#arrow)"/>
<line x1="542" y1="282" x2="563" y2="298" class="edge" marker-end="url(#arrow)"/>
<line x1="167" y1="363" x2="195" y2="352" class="edge" marker-end="url(#arrow)"/>
<line x1="174" y1="351" x2="206" y2="363" class="edge" marker-end="url(#arrow)"/>
<line x1="458" y1="57" x2="417" y2="56" class="edge" stroke-dasharray="4 3" marker-end="url(#arrow)"/>
<line x1="130" y1="303" x2="317" y2="82" class="edge" stroke-dasharray="4 3" marker-end="url(#arrow)"/>
<line x1="471" y1="303" x2="494" y2="211" class="edge" stroke-dasharray="4 3" marker-end="url(#arrow)"/>
<g class="node" data-node-id="hypothalamus" data-node-type="signal"><rect class="node-shape" x="265" y="30" width="150" height="50" rx="8"/><text class="lbl lbl-t" x="340.0" y="46.0" text-anchor="middle" dominant-baseline="central">Гипоталамус</text><text class="lbl lbl-s" x="340.0" y="64.0" text-anchor="middle" dominant-baseline="central">ГнРГ</text></g>
<g class="node" data-node-id="prolactin" data-node-type="hormone"><rect class="node-shape" x="460" y="36" width="150" height="44" rx="8"/><text class="lbl lbl-t" x="535.0" y="58.0" text-anchor="middle" dominant-baseline="central">Пролактин</text></g>
<g class="node" data-node-id="pituitary" data-node-type="organ"><rect class="node-shape" x="265" y="100" width="150" height="46" rx="8"/><text class="lbl lbl-t" x="340.0" y="123.0" text-anchor="middle" dominant-baseline="central">Гипофиз</text></g>
<g class="node" data-node-id="lh" data-node-type="hormone"><rect class="node-shape" x="120" y="165" width="120" height="44" rx="8"/><text class="lbl lbl-t" x="180.0" y="187.0" text-anchor="middle" dominant-baseline="central">ЛГ</text></g>
<g class="node" data-node-id="fsh" data-node-type="hormone"><rect class="node-shape" x="440" y="165" width="120" height="44" rx="8"/><text class="lbl lbl-t" x="500.0" y="187.0" text-anchor="middle" dominant-baseline="central">ФСГ</text></g>
<g class="node" data-node-id="leydig" data-node-type="organ"><rect class="node-shape" x="95" y="230" width="150" height="50" rx="8"/><text class="lbl lbl-t" x="170.0" y="246.0" text-anchor="middle" dominant-baseline="central">Клетки</text><text class="lbl lbl-s" x="170.0" y="264.0" text-anchor="middle" dominant-baseline="central">Лейдига</text></g>
<g class="node" data-node-id="sertoli" data-node-type="organ"><rect class="node-shape" x="430" y="230" width="150" height="50" rx="8"/><text class="lbl lbl-t" x="505.0" y="246.0" text-anchor="middle" dominant-baseline="central">Клетки</text><text class="lbl lbl-s" x="505.0" y="264.0" text-anchor="middle" dominant-baseline="central">Сертоли</text></g>
<g class="node" data-node-id="testosterone" data-node-type="hormone"><rect class="node-shape" x="40" y="305" width="140" height="44" rx="8"/><text class="lbl lbl-t" x="110.0" y="327.0" text-anchor="middle" dominant-baseline="central">Тестостерон</text></g>
<g class="node" data-node-id="free_t" data-node-type="marker"><rect class="node-shape" x="195" y="300" width="140" height="50" rx="8"/><text class="lbl lbl-t" x="265.0" y="316.0" text-anchor="middle" dominant-baseline="central">Свободный</text><text class="lbl lbl-s" x="265.0" y="334.0" text-anchor="middle" dominant-baseline="central">тестостерон</text></g>
<g class="node" data-node-id="shbg" data-node-type="marker"><rect class="node-shape" x="40" y="365" width="140" height="40" rx="8"/><text class="lbl lbl-t" x="110.0" y="385.0" text-anchor="middle" dominant-baseline="central">ГСПГ</text></g>
<g class="node" data-node-id="estradiol" data-node-type="hormone"><rect class="node-shape" x="195" y="365" width="140" height="40" rx="8"/><text class="lbl lbl-t" x="265.0" y="385.0" text-anchor="middle" dominant-baseline="central">Эстрадиол</text></g>
<g class="node" data-node-id="inhibin_b" data-node-type="marker"><rect class="node-shape" x="400" y="305" width="130" height="44" rx="8"/><text class="lbl lbl-t" x="465.0" y="327.0" text-anchor="middle" dominant-baseline="central">Ингибин B</text></g>
<g class="node" data-node-id="amh" data-node-type="marker"><rect class="node-shape" x="400" y="365" width="130" height="40" rx="8"/><text class="lbl lbl-t" x="465.0" y="385.0" text-anchor="middle" dominant-baseline="central">АМГ</text></g>
<g class="node" data-node-id="spermatogenesis" data-node-type="target"><rect class="node-shape" x="550" y="300" width="105" height="54" rx="8"/><text class="lbl lbl-t" x="602.5" y="318.0" text-anchor="middle" dominant-baseline="central">Сперма-</text><text class="lbl lbl-s" x="602.5" y="336.0" text-anchor="middle" dominant-baseline="central">тогенез</text></g>
</svg>
