<svg xmlns="http://www.w3.org/2000/svg" width="100%" viewBox="0 0 680 300" role="img" data-pathway="thyroid">
<title>Щитовидная ось</title>
<desc>ТРГ — ТТГ (гипофиз) — щитовидная железа — Т4 свободный — Т3 свободный — ткани; АТ-ТПО.</desc>
<style>
.node-shape{fill:#EEF0F2;stroke:#8A8F98;stroke-width:1;}
.lbl{font-family:Arial,Helvetica,sans-serif;fill:#22303C;}
.lbl-t{font-weight:600;font-size:14px;}
.lbl-s{font-size:12px;fill:#5A6672;}
.edge{stroke:#9AA3AD;stroke-width:1.2;fill:none;}
[data-sev="norm"] .node-shape{fill:#E6F4EA;stroke:#3B8E5A;}
[data-sev="mild"] .node-shape{fill:#FBF3D6;stroke:#C9A227;}
[data-sev="moderate"] .node-shape{fill:#FBE7D2;stroke:#D97B29;}
[data-sev="severe"] .node-shape{fill:#F7D9D9;stroke:#C0392B;}
[data-sev="nodata"] .node-shape{fill:#F1EFE8;stroke:#B4B2A9;}
</style>
<defs><marker id="arrow" viewBox="0 0 10 10" refX="8" refY="5" markerWidth="6" markerHeight="6" orient="auto-start-reverse"><path d="M2 1L8 5L2 9" fill="none" stroke="context-stroke" stroke-width="1.5" stroke-linecap="round" stroke-linejoin="round"/></marker></defs>

<line x1="150" y1="70" x2="188" y2="70" class="edge" marker-end="url(#arrow)"/>
<line x1="300" y1="70" x2="338" y2="70" class="edge" marker-end="url(#arrow)"/>
<line x1="450" y1="70" x2="488" y2="70" class="edge" marker-end="url(#arrow)"/>
<line x1="565" y1="96" x2="565" y2="148" class="edge" marker-end="url(#arrow)"/>
<path d="M545 174 L400 220 L260 220 L260 96" class="edge" marker-end="url(#arrow)" stroke-dasharray="4 3"/>
<line x1="415" y1="112" x2="415" y2="70" class="edge" marker-end="url(#arrow)"/>

<g class="node" data-node-id="trh" data-node-type="signal"><rect class="node-shape" x="40" y="44" width="110" height="52" rx="8"/><text class="lbl lbl-t" x="95" y="63" text-anchor="middle" dominant-baseline="central">ТРГ</text><text class="lbl lbl-s" x="95" y="81" text-anchor="middle" dominant-baseline="central">гипоталамус</text></g>
<g class="node" data-node-id="pituitary_tsh" data-node-type="signal"><rect class="node-shape" x="190" y="44" width="110" height="52" rx="8"/><text class="lbl lbl-t" x="245" y="63" text-anchor="middle" dominant-baseline="central">ТТГ</text><text class="lbl lbl-s" x="245" y="81" text-anchor="middle" dominant-baseline="central">гипофиз</text></g>
<g class="node" data-node-id="thyroid" data-node-type="organ"><rect class="node-shape" x="340" y="44" width="110" height="52" rx="8"/><text class="lbl lbl-t" x="395" y="63" text-anchor="middle" dominant-baseline="central">Щитовидная</text><text class="lbl lbl-s" x="395" y="81" text-anchor="middle" dominant-baseline="central">железа</text></g>
<g class="node" data-node-id="ft4" data-node-type="marker"><rect class="node-shape" x="490" y="44" width="150" height="52" rx="8"/><text class="lbl lbl-t" x="565" y="70" text-anchor="middle" dominant-baseline="central">Т4 свободный</text></g>

<g class="node" data-node-id="ft3" data-node-type="marker"><rect class="node-shape" x="490" y="150" width="150" height="46" rx="8"/><text class="lbl lbl-t" x="565" y="173" text-anchor="middle" dominant-baseline="central">Т3 свободный</text></g>
<g class="node" data-node-id="tissues" data-node-type="target"><rect class="node-shape" x="300" y="150" width="150" height="46" rx="8"/><text class="lbl lbl-t" x="375" y="173" text-anchor="middle" dominant-baseline="central">Ткани-мишени</text></g>
<line x1="490" y1="173" x2="452" y2="173" class="edge" marker-end="url(#arrow)"/>

<g class="node" data-node-id="tpo_ab" data-node-type="antibody"><rect class="node-shape" x="345" y="220" width="140" height="46" rx="8"/><text class="lbl lbl-t" x="415" y="243" text-anchor="middle" dominant-baseline="central">АТ-ТПО</text></g>
</svg>
